{"title":"Avatar TS IMAGINE NORARS","uid":5229437,"size":740287232,"categoryP":"video","categoryS":"movies","magnet":"?xt=urn:btih:7a0353178d261929630c531930006bd653112e5c&amp;dn=Avatar+TS+IMAGINE+NORARS&amp;tr=udp%3A%2F%2Ftracker.openbittorrent.com%3A80&amp;tr=udp%3A%2F%2Fopen.demonii.com%3A1337&amp;tr=udp%3A%2F%2Ftracker.coppersurfer.tk%3A6969&amp;tr=udp%3A%2F%2Fexodus.desync.com%3A6969","seeders":0,"leechers":0,"uploader":"IwannaFan2","files":1,"time":1261264325,"description":"Format                           : AVI\nFormat/Info                      : Audio Video Interleave\nFile size                        : 706 MiB\nDuration                         : 2h 33mn\nOverall bit rate                 : 642 Kbps\n\nVideo\nID                               : 0\nFormat                           : MPEG-4 Visual\nFormat profile                   : Simple@L1\nFormat settings, BVOP            : No\nFormat settings, QPel            : No\nFormat settings, GMC             : No warppoints\nFormat settings, Matrix          : Default (H.263)\nCodec ID                         : DIVX\nCodec ID/Info                    : Project Mayo\nCodec ID/Hint                    : DivX 4\nDuration                         : 2h 33mn\nBit rate                         : 501 Kbps\nWidth                            : 528 pixels\nHeight                           : 224 pixels\nDisplay aspect ratio             : 2.35:1\nFrame rate                       : 25.000 fps\nResolution                       : 24 bits\nColorimetry                      : 4:2:0\nScan type                        : Progressive\nBits/(Pixel*Frame)               : 0.170\nStream size                      : 552 MiB (78%)\nWriting library                  : FFmpeg0.4.9-pre1b4721\n\nAudio\nID                               : 1\nFormat                           : MPEG Audio\nFormat version                   : Version 1\nFormat profile                   : Layer 3\nFormat_Settings_Mode             : Joint stereo / MS Stereo\nCodec ID                         : 55\nCodec ID/Hint                    : MP3\nDuration                         : 2h 33mn\nBit rate mode                    : Constant\nBit rate                         : 128 Kbps\nChannel(s)                       : 2 channels\nSampling rate                    : 44.1 KHz\nResolution                       : 16 bits\nStream size                      : 141 MiB (20%)\nAlignment                        : Aligned on interleaves\nInterleave, duration             : 26 ms (0.65 video frame)\nInterleave, preload duration     : 522 ms","torrent":{"xt":"urn:btih:7a0353178d261929630c531930006bd653112e5c","amp;dn":"Avatar+TS+IMAGINE+NORARS","amp;tr":["udp%3A%2F%2Ftracker.openbittorrent.com%3A80","udp%3A%2F%2Fopen.demonii.com%3A1337","udp%3A%2F%2Ftracker.coppersurfer.tk%3A6969","udp%3A%2F%2Fexodus.desync.com%3A6969"],"infoHash":"7a0353178d261929630c531930006bd653112e5c","infoHashBuffer":{"type":"Buffer","data":[122,3,83,23,141,38,25,41,99,12,83,25,48,0,107,214,83,17,46,92]},"announce":[],"urlList":[]}}